<?xml version="1.0" standalone="no"?>
<!DOCTYPE svg PUBLIC "-//W3C//DTD SVG 20010904//EN"
 "http://www.w3.org/TR/2001/REC-SVG-20010904/DTD/svg10.dtd">
<svg version="1.0" xmlns="http://www.w3.org/2000/svg"
 width="32.000000pt" height="32.000000pt" viewBox="0 0 32.000000 32.000000"
 preserveAspectRatio="xMidYMid meet">

<g transform="translate(0.000000,32.000000) scale(0.100000,-0.100000)"
fill="#000000" stroke="none">
<path d="M0 160 l0 -160 160 0 160 0 0 160 0 160 -160 0 -160 0 0 -160z m228
130 c33 -15 47 -29 62 -62 23 -51 25 -78 6 -122 -29 -70 -127 -105 -196 -69
-106 55 -106 202 0 255 45 23 75 22 128 -2z"/>
<path d="M123 289 c-71 -21 -110 -109 -77 -175 27 -53 66 -79 118 -78 74 2
126 54 126 129 0 90 -80 149 -167 124z m108 -58 c16 -16 29 -34 29 -40 0 -16
-46 -13 -60 4 -19 23 -67 19 -81 -6 -26 -50 30 -93 75 -58 28 22 66 25 66 6 0
-17 -49 -63 -77 -71 -35 -11 -91 18 -109 57 -48 100 78 186 157 108z"/>
<path d="M105 225 c-51 -50 -17 -145 53 -145 32 0 86 36 76 51 -3 5 -17 0 -31
-11 -33 -25 -58 -25 -83 0 -28 28 -25 64 7 89 28 23 54 21 86 -7 9 -8 20 -12
25 -8 4 4 -6 19 -21 32 -37 31 -81 31 -112 -1z"/>
</g>
</svg>
